Normalized EMG Linear Envelopes
nRows=116
nColumns=4

endheader
time	 med_gas_r	  soleus_r	 tib_ant_r	
2.9375	  0.008613	  0.005220	  0.001300	
3	  0.007765	  0.005334	  0.001447	
3.0625	  0.007422	  0.005531	  0.001540	
3.125	  0.007783	  0.005817	  0.001552	
3.1875	  0.008520	  0.006103	  0.001502	
3.25	  0.009083	  0.006234	  0.001444	
3.3125	  0.009241	  0.006114	  0.001423	
3.375	  0.009098	  0.005807	  0.001451	
3.4375	  0.008797	  0.005465	  0.001508	
3.5	  0.008500	  0.005221	  0.001555	
3.5625	  0.008402	  0.005156	  0.001575	
3.625	  0.008505	  0.005289	  0.001583	
3.6875	  0.008597	  0.005566	  0.001606	
3.75	  0.008475	  0.005899	  0.001644	
3.8125	  0.008111	  0.006212	  0.001672	
3.875	  0.007637	  0.006428	  0.001663	
3.9375	  0.007269	  0.006454	  0.001606	
4	  0.007210	  0.006256	  0.001522	
4.0625	  0.007545	  0.005916	  0.001454	
4.125	  0.008120	  0.005536	  0.001447	
4.1875	  0.008520	  0.005149	  0.001513	
4.25	  0.008372	  0.004744	  0.001616	
4.3125	  0.007746	  0.004379	  0.001690	
4.375	  0.007056	  0.004336	  0.001693	
4.4375	  0.006563	  0.005243	  0.001635	
4.5	  0.006229	  0.008013	  0.001555	
4.5625	  0.005978	  0.013367	  0.001490	
4.625	  0.005823	  0.020418	  0.001462	
4.6875	  0.005825	  0.025575	  0.001493	
4.75	  0.006108	  0.025152	  0.001591	
4.8125	  0.006764	  0.019738	  0.001734	
4.875	  0.007632	  0.013471	  0.001864	
4.9375	  0.008276	  0.009310	  0.001911	
5	  0.008231	  0.007216	  0.001810	
5.0625	  0.007303	  0.005710	  0.001493	
5.125	  0.005677	  0.003263	  0.000908	
5.1875	  0.003842	 -0.001007	  0.000149	
5.25	  0.002656	 -0.006258	 -0.000297	
5.3125	  0.003681	 -0.008320	  0.000672	
5.375	  0.009385	  0.001433	  0.004714	
5.4375	  0.022489	  0.035108	  0.013325	
5.5	  0.043753	  0.101274	  0.026149	
5.5625	  0.069248	  0.191173	  0.039811	
5.625	  0.091247	  0.275122	  0.049590	
5.6875	  0.103690	  0.323907	  0.052674	
5.75	  0.105672	  0.330843	  0.049388	
5.8125	  0.099619	  0.306832	  0.042235	
5.875	  0.089418	  0.265725	  0.034574	
5.9375	  0.080158	  0.221288	  0.029199	
6	  0.076152	  0.187079	  0.027219	
6.0625	  0.079056	  0.171059	  0.028078	
6.125	  0.087639	  0.170182	  0.030162	
6.1875	  0.096834	  0.172195	  0.031602	
6.25	  0.099078	  0.164880	  0.031291	
6.3125	  0.090645	  0.144525	  0.029260	
6.375	  0.075754	  0.117918	  0.026161	
6.4375	  0.062971	  0.096880	  0.022853	
6.5	  0.059173	  0.089829	  0.020322	
6.5625	  0.067037	  0.098796	  0.019355	
6.625	  0.086235	  0.121606	  0.020100	
6.6875	  0.116122	  0.156484	  0.022112	
6.75	  0.156594	  0.207604	  0.024882	
6.8125	  0.205509	  0.279505	  0.028233	
6.875	  0.255488	  0.360654	  0.032130	
6.9375	  0.295251	  0.424339	  0.036217	
7	  0.316365	  0.454575	  0.039535	
7.0625	  0.317538	  0.460196	  0.040820	
7.125	  0.302452	  0.455660	  0.039442	
7.1875	  0.277932	  0.441525	  0.036005	
7.25	  0.252842	  0.413181	  0.031726	
7.3125	  0.232770	  0.374109	  0.027554	
7.375	  0.216263	  0.331359	  0.024172	
7.4375	  0.198395	  0.288689	  0.022109	
7.5	  0.176085	  0.248203	  0.021296	
7.5625	  0.149800	  0.212996	  0.021046	
7.625	  0.123031	  0.186218	  0.020682	
7.6875	  0.100065	  0.167761	  0.019900	
7.75	  0.082688	  0.154170	  0.018768	
7.8125	  0.070181	  0.143020	  0.017653	
7.875	  0.061981	  0.134269	  0.016900	
7.9375	  0.057876	  0.127718	  0.016435	
8	  0.056549	  0.121796	  0.015875	
8.0625	  0.056157	  0.114755	  0.015112	
8.125	  0.055905	  0.106488	  0.014465	
8.1875	  0.055729	  0.097791	  0.014223	
8.25	  0.055458	  0.088592	  0.014364	
8.3125	  0.055286	  0.079878	  0.014645	
8.375	  0.055253	  0.075399	  0.014740	
8.4375	  0.054576	  0.078355	  0.014506	
8.5	  0.053690	  0.087233	  0.014150	
8.5625	  0.054647	  0.095976	  0.013958	
8.625	  0.057330	  0.099168	  0.013996	
8.6875	  0.058299	  0.096450	  0.014212	
8.75	  0.054555	  0.089325	  0.014504	
8.8125	  0.046191	  0.076648	  0.014590	
8.875	  0.035736	  0.058199	  0.014165	
8.9375	  0.026391	  0.038884	  0.013176	
9	  0.020213	  0.024585	  0.011770	
9.0625	  0.017307	  0.016738	  0.010176	
9.125	  0.016496	  0.012968	  0.008680	
9.1875	  0.016315	  0.010470	  0.007452	
9.25	  0.015674	  0.008040	  0.006579	
9.3125	  0.014383	  0.006435	  0.006468	
9.375	  0.013981	  0.007906	  0.008066	
9.4375	  0.018906	  0.015531	  0.012702	
9.5	  0.036610	  0.031908	  0.021311	
9.5625	  0.074547	  0.057010	  0.032857	
9.625	  0.132749	  0.087122	  0.043934	
9.6875	  0.197898	  0.117607	  0.051379	
9.75	  0.251460	  0.147991	  0.055018	
9.8125	  0.286754	  0.181293	  0.057001	
9.875	  0.310708	  0.216286	  0.058902	
9.9375	  0.328698	  0.243464	  0.059749	
10	  0.336703	  0.249223	  0.056932	
10.0625	  0.329482	  0.224904	  0.049181	
10.125	  0.310764	  0.177598	  0.038111	
